<?xml version="1.0" encoding="UTF-8"?>
<!DOCTYPE svg PUBLIC "-//W3C//DTD SVG 1.1//EN" "http://www.w3.org/Graphics/SVG/1.1/DTD/svg11.dtd">
<svg xmlns="http://www.w3.org/2000/svg" version="1.1" width="240px" height="240px" style="shape-rendering:geometricPrecision; text-rendering:geometricPrecision; image-rendering:optimizeQuality; fill-rule:evenodd; clip-rule:evenodd" xmlns:xlink="http://www.w3.org/1999/xlink">
<g><path style="opacity:0.999" fill="#e59440" d="M 102.5,-0.5 C 113.833,-0.5 125.167,-0.5 136.5,-0.5C 184.19,8.00843 216.69,35.0084 234,80.5C 236.02,87.586 237.853,94.586 239.5,101.5C 239.5,113.5 239.5,125.5 239.5,137.5C 227.833,193.833 193.833,227.833 137.5,239.5C 125.5,239.5 113.5,239.5 101.5,239.5C 57.9628,231.142 26.7961,206.808 8,166.5C 4.20535,156.635 1.37201,146.635 -0.5,136.5C -0.5,125.167 -0.5,113.833 -0.5,102.5C 9.02856,51.9676 38.3619,18.9676 87.5,3.5C 90.1522,3.59047 92.4855,2.92381 94.5,1.5C 97.2804,0.921588 99.9471,0.254922 102.5,-0.5 Z"/></g>
<g><path style="opacity:0.561" fill="#81511f" d="M 94.5,1.5 C 92.4855,2.92381 90.1522,3.59047 87.5,3.5C 89.5145,2.07619 91.8478,1.40953 94.5,1.5 Z"/></g>
<g><path style="opacity:1" fill="#150e05" d="M 138.5,15.5 C 143.611,15.0251 148.444,16.3584 153,19.5C 153.975,23.5695 152.475,25.9029 148.5,26.5C 148.905,29.9865 149.905,33.3199 151.5,36.5C 149.157,37.7253 147.323,37.0586 146,34.5C 145.904,31.5488 145.071,28.8822 143.5,26.5C 141.28,28.6631 140.947,31.1631 142.5,34C 139.613,34.7227 136.947,34.2227 134.5,32.5C 135.242,31.7132 136.075,31.0465 137,30.5C 138.011,26.123 139.178,21.7897 140.5,17.5C 140.253,16.2867 139.586,15.62 138.5,15.5 Z"/></g>
<g><path style="opacity:1" fill="#120b04" d="M 87.5,16.5 C 96.5746,15.0537 99.4079,18.387 96,26.5C 98.4087,28.6201 100.909,30.6201 103.5,32.5C 101.579,33.641 99.5787,33.8077 97.5,33C 95.6499,30.9824 93.6499,29.1491 91.5,27.5C 90.424,30.7641 91.424,33.2641 94.5,35C 91.6846,36.7213 88.6846,37.3879 85.5,37C 86.5784,36.3261 87.2451,35.3261 87.5,34C 86.7228,29.7247 85.5562,25.558 84,21.5C 82.9326,20.8095 81.7659,20.3095 80.5,20C 82.8583,18.7245 85.1916,17.5578 87.5,16.5 Z"/></g>
<g><path style="opacity:1" fill="#d3883b" d="M 87.5,18.5 C 93.2354,17.8213 94.902,20.1546 92.5,25.5C 91.8333,25.8333 91.1667,26.1667 90.5,26.5C 88.9294,24.0293 87.9294,21.3626 87.5,18.5 Z"/></g>
<g><path style="opacity:1" fill="#d0873a" d="M 144.5,17.5 C 149.699,18.2594 150.699,20.7594 147.5,25C 146.207,25.49 144.873,25.6567 143.5,25.5C 143.575,22.7938 143.908,20.1272 144.5,17.5 Z"/></g>
<g><path style="opacity:1" fill="#130c04" d="M 117.5,11.5 C 118.826,15.6139 119.493,20.1139 119.5,25C 119.167,29.5 118.833,34 118.5,38.5C 117.502,29.5246 117.168,20.5246 117.5,11.5 Z"/></g>
<g><path style="opacity:1" fill="#191107" d="M 160.5,22.5 C 161.251,21.4265 162.251,21.2599 163.5,22C 167.327,23.746 170.993,25.746 174.5,28C 172.53,32.8054 171.197,32.6387 170.5,27.5C 169.252,26.9598 168.085,26.2931 167,25.5C 165.708,27.2487 164.542,29.082 163.5,31C 170.266,34.8745 170.1,35.7079 163,33.5C 157.926,37.5112 158.426,40.5112 164.5,42.5C 169.241,40.1017 169.741,41.1017 166,45.5C 161.419,43.1268 156.919,40.6268 152.5,38C 153.766,37.6905 154.933,37.1905 156,36.5C 158.047,32.239 160.213,28.0724 162.5,24C 162.164,22.9701 161.497,22.4701 160.5,22.5 Z"/></g>
<g><path style="opacity:1" fill="#120b04" d="M 68.5,24.5 C 77.7523,24.5871 81.919,29.2538 81,38.5C 78.2588,43.4186 74.0921,45.2519 68.5,44C 60.5844,37.2971 60.5844,30.7971 68.5,24.5 Z"/></g>
<g><path style="opacity:1" fill="#e0913e" d="M 68.5,26.5 C 75.1271,28.7392 77.9605,33.4059 77,40.5C 75.062,42.9784 72.8953,43.1451 70.5,41C 67.1307,37.4425 65.6307,33.2759 66,28.5C 66.9947,27.9341 67.828,27.2674 68.5,26.5 Z"/></g>
<g><path style="opacity:1" fill="#170f06" d="M 185.5,36.5 C 187.484,36.484 188.484,37.484 188.5,39.5C 186.079,45.6714 184.246,52.0047 183,58.5C 180.54,57.0422 178.373,55.2089 176.5,53C 178.885,52.9451 180.219,51.7784 180.5,49.5C 179.214,47.7099 177.714,46.0432 176,44.5C 172.797,45.5693 171.797,47.5693 173,50.5C 171.442,48.6411 169.609,47.1411 167.5,46C 173.963,43.6032 179.963,40.4366 185.5,36.5 Z"/></g>
<g><path style="opacity:1" fill="#170f06" d="M 53.5,34.5 C 58.305,37.4867 58.305,38.4867 53.5,37.5C 51.6097,37.8688 50.7764,38.8688 51,40.5C 54.5364,43.7012 57.7031,47.2012 60.5,51C 61.7376,50.9227 62.7376,51.0894 63.5,51.5C 61.2092,53.2878 59.0425,55.2878 57,57.5C 57,56.1667 57,54.8333 57,53.5C 54.036,49.5342 50.7026,45.8675 47,42.5C 44.4414,44.3357 43.7747,46.6691 45,49.5C 43.647,48.3147 42.4803,46.9814 41.5,45.5C 45.546,41.7831 49.546,38.1165 53.5,34.5 Z"/></g>
<g><path style="opacity:1" fill="#cb8338" d="M 183.5,39.5 C 184.449,42.0286 183.782,44.3619 181.5,46.5C 179.998,45.9169 178.665,45.0836 177.5,44C 179.684,42.6366 181.684,41.1366 183.5,39.5 Z"/></g>
<g><path style="opacity:1" fill="#191107" d="M 198.5,48.5 C 200.951,50.1226 202.951,52.2893 204.5,55C 203.167,55 201.833,55 200.5,55C 197,57.8333 193.5,60.6667 190,63.5C 189.837,65.3867 190.671,66.8867 192.5,68C 198.596,67.2739 198.929,68.4405 193.5,71.5C 190.152,68.1486 187.152,64.4819 184.5,60.5C 188.63,58.2652 192.63,55.7652 196.5,53C 198.037,51.8904 198.703,50.3904 198.5,48.5 Z"/></g>
<g><path style="opacity:1" fill="#140d05" d="M 37.5,50.5 C 41.2231,50.3577 42.0564,51.691 40,54.5C 35.8143,53.3503 34.1476,55.017 35,59.5C 37.2047,62.0402 39.7047,64.2068 42.5,66C 48.0588,66.782 50.8922,64.282 51,58.5C 52.5205,62.0469 51.6872,65.2135 48.5,68C 42.1031,70.8913 36.9364,69.3913 33,63.5C 31.3794,57.9227 32.8794,53.5894 37.5,50.5 Z"/></g>
<g><path style="opacity:1" fill="#170f06" d="M 210.5,64.5 C 213.082,66.9968 214.582,69.9968 215,73.5C 214.311,72.6433 213.478,71.9767 212.5,71.5C 208.34,73.4125 204.34,75.5791 200.5,78C 199.809,79.0674 199.309,80.2341 199,81.5C 196.66,79.2088 195.327,76.5421 195,73.5C 195.561,74.0219 196.228,74.3552 197,74.5C 200.894,72.803 204.727,70.9697 208.5,69C 210.037,67.8904 210.703,66.3904 210.5,64.5 Z"/></g>
<g><path style="opacity:1" fill="#1a1107" d="M 21.5,74.5 C 28.4151,75.0906 35.2485,75.0906 42,74.5C 42.0786,77.3697 41.2453,80.0363 39.5,82.5C 38.6143,81.675 38.281,80.675 38.5,79.5C 34.6121,78.9887 32.2788,80.6553 31.5,84.5C 31.9767,85.4776 32.6433,86.3109 33.5,87C 35.0846,87.0848 36.4179,87.2514 37.5,87.5C 36.7515,89.3325 35.7515,90.9991 34.5,92.5C 30.8972,87.3934 26.7305,82.7267 22,78.5C 21.51,77.2068 21.3433,75.8734 21.5,74.5 Z"/></g>
<g><path style="opacity:1" fill="#d3883b" d="M 24.5,78.5 C 24.56,77.9569 24.8933,77.6236 25.5,77.5C 27.8537,78.0601 30.187,78.7267 32.5,79.5C 31.9169,81.0016 31.0836,82.3349 30,83.5C 28.2962,81.6266 26.4628,79.9599 24.5,78.5 Z"/></g>
<g><path style="opacity:1" fill="#181007" d="M 212.5,78.5 C 219.248,78.9494 221.915,82.6161 220.5,89.5C 218.897,89.6882 217.563,89.1882 216.5,88C 219.313,85.4635 219.146,83.2969 216,81.5C 215.228,81.6448 214.561,81.9781 214,82.5C 214.02,86.7617 212.853,90.595 210.5,94C 207.653,94.9439 205.153,94.4439 203,92.5C 201.279,89.6846 200.612,86.6846 201,83.5C 202.079,81.6063 203.413,81.273 205,82.5C 204.76,84.4665 203.927,86.2998 202.5,88C 203.969,91.8264 206.136,92.3264 209,89.5C 208.799,85.2712 209.966,81.6045 212.5,78.5 Z"/></g>
<g><path style="opacity:1" fill="#160f06" d="M 15.5,91.5 C 17.288,91.2148 18.9547,91.5481 20.5,92.5C 19.3112,93.4287 17.9778,93.762 16.5,93.5C 14.4405,99.0619 16.4405,101.395 22.5,100.5C 23.9519,92.7025 24.6186,93.0358 24.5,101.5C 26.8056,101.993 29.139,102.326 31.5,102.5C 31.6204,100.801 31.9537,99.1347 32.5,97.5C 32.4712,95.9707 31.8045,94.804 30.5,94C 31.7932,93.51 33.1266,93.3433 34.5,93.5C 34.0843,98.9927 32.9176,104.326 31,109.5C 30.5172,108.552 30.3505,107.552 30.5,106.5C 25.6184,105.819 20.785,104.819 16,103.5C 15.0497,104.022 14.2164,104.689 13.5,105.5C 13.1667,105 12.8333,104.5 12.5,104C 13.439,99.8016 14.439,95.635 15.5,91.5 Z"/></g>
<g><path style="opacity:1" fill="#130c04" d="M 218.5,95.5 C 220.467,95.2606 222.301,95.5939 224,96.5C 225.051,101.474 225.885,106.474 226.5,111.5C 224.554,111.807 222.887,111.807 221.5,111.5C 223.978,110.278 224.978,108.278 224.5,105.5C 219.139,106.099 213.806,106.933 208.5,108C 207.874,108.75 207.374,109.584 207,110.5C 206.327,107.479 205.993,104.479 206,101.5C 206.839,102.624 208.006,103.291 209.5,103.5C 214.119,102.442 218.786,101.776 223.5,101.5C 223.649,100.448 223.483,99.448 223,98.5C 220.974,98.0853 219.474,97.0853 218.5,95.5 Z"/></g>
<g><path style="opacity:1" fill="#1a1208" d="M 23.5,120.5 C 22.9569,120.56 22.6236,120.893 22.5,121.5C 24.9732,122.797 27.3066,122.797 29.5,121.5C 29.3691,120.624 29.7025,119.957 30.5,119.5C 31.8333,122.5 31.8333,125.5 30.5,128.5C 27.6996,127.268 24.6996,126.601 21.5,126.5C 18.3004,126.601 15.3004,127.268 12.5,128.5C 11.3401,124.541 11.1735,120.541 12,116.5C 13.3339,112.896 15.8339,111.729 19.5,113C 20.3992,114.236 21.5659,115.07 23,115.5C 25.8975,114.437 28.3975,112.77 30.5,110.5C 31.6808,112.135 31.6808,113.802 30.5,115.5C 27.9235,116.943 25.5901,118.61 23.5,120.5 Z"/></g>
<g><path style="opacity:1" fill="#d0873a" d="M 14.5,117.5 C 16.5273,117.338 18.5273,117.505 20.5,118C 21.3802,119.356 21.7135,120.856 21.5,122.5C 18.8333,122.5 16.1667,122.5 13.5,122.5C 13.366,120.708 13.6993,119.042 14.5,117.5 Z"/></g>
<g><path style="opacity:1" fill="#1c1309" d="M 207.5,115.5 C 210.4,116.737 213.567,117.403 217,117.5C 220.276,117.442 223.276,116.776 226,115.5C 226.667,118.5 226.667,121.5 226,124.5C 223.276,123.224 220.276,122.558 217,122.5C 213.724,122.558 210.724,123.224 208,124.5C 207.502,121.518 207.335,118.518 207.5,115.5 Z"/></g>
<g><path style="opacity:1" fill="#764d21" d="M 23.5,120.5 C 25.2646,121.461 27.2646,121.795 29.5,121.5C 27.3066,122.797 24.9732,122.797 22.5,121.5C 22.6236,120.893 22.9569,120.56 23.5,120.5 Z"/></g>
<g><path style="opacity:1" fill="#1b1008" d="M 128.5,45.5 C 136.586,45.1874 143.92,47.3541 150.5,52C 155.23,56.7967 159.23,62.13 162.5,68C 188.076,74.9926 195.576,90.8259 185,115.5C 182.484,119.871 179.984,124.204 177.5,128.5C 183.499,143.321 182.665,157.654 175,171.5C 167.905,178.756 159.239,182.09 149,181.5C 144.228,181.538 139.561,180.871 135,179.5C 128.11,186.198 119.943,190.698 110.5,193C 101.897,194.464 94.2299,192.464 87.5,187C 83.0926,182.188 79.4259,176.855 76.5,171C 54.7109,165.93 46.2109,152.43 51,130.5C 53.7379,123.354 57.2379,116.688 61.5,110.5C 49.9707,70.6721 64.6374,53.5054 105.5,59C 112.352,52.9148 120.018,48.4148 128.5,45.5 Z"/></g>
<g><path style="opacity:1" fill="#194a11" d="M 172.5,119.5 C 173.674,120.514 174.34,121.847 174.5,123.5C 174.5,124.167 174.5,124.833 174.5,125.5C 172.926,123.898 172.259,121.898 172.5,119.5 Z"/></g>
<g><path style="opacity:1" fill="#ec4b20" d="M 66.5,121.5 C 68.3222,124.472 70.1555,127.472 72,130.5C 71.9108,142.98 73.0774,155.314 75.5,167.5C 64.0957,156.901 59.9291,143.901 63,128.5C 63.6701,125.826 64.8368,123.493 66.5,121.5 Z"/></g>
<g><path style="opacity:1" fill="#e5943f" d="M 66.5,121.5 C 64.8368,123.493 63.6701,125.826 63,128.5C 59.9291,143.901 64.0957,156.901 75.5,167.5C 64.294,166.807 56.4606,160.474 52,148.5C 50.3295,138.871 51.9962,129.871 57,121.5C 58.3622,118.764 60.1956,116.431 62.5,114.5C 64.0981,116.698 65.4314,119.031 66.5,121.5 Z"/></g>
<g><path style="opacity:1" fill="#6ec531" d="M 165.5,111.5 C 167.833,114.167 170.167,116.833 172.5,119.5C 172.259,121.898 172.926,123.898 174.5,125.5C 174.5,125.833 174.5,126.167 174.5,126.5C 170.278,133.561 164.778,139.561 158,144.5C 161.267,133.758 163.767,122.758 165.5,111.5 Z"/></g>
<g><path style="opacity:1" fill="#ef4b21" d="M 79.5,107.5 C 82.4597,119.776 89.4597,128.776 100.5,134.5C 99.8351,146.171 103.168,156.504 110.5,165.5C 96.9818,157.154 85.4818,146.487 76,133.5C 75.0419,131.801 74.5419,129.967 74.5,128C 75.3596,120.842 77.0263,114.008 79.5,107.5 Z"/></g>
<g><path style="opacity:1" fill="#e74a20" d="M 76.5,108.5 C 74.9137,114.764 73.5803,121.098 72.5,127.5C 70.376,124.721 68.7093,121.721 67.5,118.5C 69.7881,114.544 72.7881,111.211 76.5,108.5 Z"/></g>
<g><path style="opacity:1" fill="#3ea65b" d="M 118.5,105.5 C 119.167,105.5 119.833,105.5 120.5,105.5C 129.966,112.098 135.633,121.098 137.5,132.5C 125.572,139.628 113.238,140.295 100.5,134.5C 102.193,122.106 108.193,112.44 118.5,105.5 Z"/></g>
<g><path style="opacity:1" fill="#74cb34" d="M 155.5,104.5 C 158.503,105.666 161.17,107.333 163.5,109.5C 162.373,122.34 159.207,134.673 154,146.5C 147.526,151.987 140.359,156.32 132.5,159.5C 137.173,151.138 139.173,142.138 138.5,132.5C 148.228,125.724 153.895,116.39 155.5,104.5 Z"/></g>
<g><path style="opacity:1" fill="#3cb963" d="M 155.5,103.5 C 155.5,103.833 155.5,104.167 155.5,104.5C 153.895,116.39 148.228,125.724 138.5,132.5C 138.167,132.5 137.833,132.5 137.5,132.5C 135.633,121.098 129.966,112.098 120.5,105.5C 125.787,101.675 131.787,100.009 138.5,100.5C 144.365,100.457 150.032,101.457 155.5,103.5 Z"/></g>
<g><path style="opacity:1" fill="#7b4e8f" d="M 118.5,105.5 C 108.193,112.44 102.193,122.106 100.5,134.5C 89.4597,128.776 82.4597,119.776 79.5,107.5C 79.5,107.167 79.5,106.833 79.5,106.5C 90.501,99.8851 102.168,98.7184 114.5,103C 116.066,103.608 117.4,104.442 118.5,105.5 Z"/></g>
<g><path style="opacity:1" fill="#d38f3f" d="M 155.5,97.5 C 159.262,100.929 162.262,104.929 164.5,109.5C 164.167,109.5 163.833,109.5 163.5,109.5C 161.17,107.333 158.503,105.666 155.5,104.5C 155.5,104.167 155.5,103.833 155.5,103.5C 155.5,101.5 155.5,99.5 155.5,97.5 Z"/></g>
<g><path style="opacity:1" fill="#e19240" d="M 79.5,96.5 C 79.5,97.1667 79.5,97.8333 79.5,98.5C 78.8991,101.968 77.8991,105.301 76.5,108.5C 72.7881,111.211 69.7881,114.544 67.5,118.5C 64.7733,115.491 64.2733,112.157 66,108.5C 70.0937,103.898 74.5937,99.8983 79.5,96.5 Z"/></g>
<g><path style="opacity:1" fill="#706a92" d="M 95.5,69.5 C 89.3609,78.7831 84.0275,88.4498 79.5,98.5C 79.5,97.8333 79.5,97.1667 79.5,96.5C 79.5,95.5 79.5,94.5 79.5,93.5C 81.3725,83.0601 86.7059,75.0601 95.5,69.5 Z"/></g>
<g><path style="opacity:1" fill="#7473a0" d="M 155.5,96.5 C 155.5,96.8333 155.5,97.1667 155.5,97.5C 155.5,99.5 155.5,101.5 155.5,103.5C 150.032,101.457 144.365,100.457 138.5,100.5C 131.787,100.009 125.787,101.675 120.5,105.5C 119.833,105.5 119.167,105.5 118.5,105.5C 117.4,104.442 116.066,103.608 114.5,103C 102.168,98.7184 90.501,99.8851 79.5,106.5C 80.9469,100.943 82.9469,95.6097 85.5,90.5C 97.5685,82.6346 110.568,76.6346 124.5,72.5C 128.481,73.6341 132.148,75.4675 135.5,78C 142.337,84.0047 149.004,90.1713 155.5,96.5 Z"/></g>
<g><path style="opacity:1" fill="#e79640" d="M 174.5,123.5 C 174.34,121.847 173.674,120.514 172.5,119.5C 171.453,115.739 169.619,112.406 167,109.5C 166.667,102.167 166.333,94.8333 166,87.5C 165.467,81.8311 164.3,76.3311 162.5,71C 181.226,73.7397 189.392,84.573 187,103.5C 184.915,111.67 181.248,119.004 176,125.5C 175.722,124.584 175.222,123.918 174.5,123.5 Z"/></g>
<g><path style="opacity:1" fill="#e79641" d="M 141.5,70.5 C 146.305,69.5128 151.305,69.1795 156.5,69.5C 157.833,69.5 159.167,69.5 160.5,69.5C 164.154,80.8931 165.321,92.5598 164,104.5C 161.302,100.975 158.469,97.6419 155.5,94.5C 155.5,94.1667 155.5,93.8333 155.5,93.5C 153.271,84.2874 148.604,76.6208 141.5,70.5 Z"/></g>
<g><path style="opacity:1" fill="#75719d" d="M 139.5,69.5 C 139.833,69.5 140.167,69.5 140.5,69.5C 140.5,70.1667 140.833,70.5 141.5,70.5C 148.604,76.6208 153.271,84.2874 155.5,93.5C 147.733,85.0631 139.066,77.7298 129.5,71.5C 132.654,69.9741 135.987,69.3075 139.5,69.5 Z"/></g>
<g><path style="opacity:1" fill="#a1692e" d="M 156.5,69.5 C 151.305,69.1795 146.305,69.5128 141.5,70.5C 140.833,70.5 140.5,70.1667 140.5,69.5C 145.833,68.1667 151.167,68.1667 156.5,69.5 Z"/></g>
<g><path style="opacity:1" fill="#133082" d="M 108.5,63.5 C 108.5,62.8333 108.833,62.5 109.5,62.5C 110.5,62.5 111.5,62.5 112.5,62.5C 117.111,64.8055 121.778,67.1389 126.5,69.5C 129.852,68.8308 133.185,68.1642 136.5,67.5C 137.167,67.5 137.833,67.5 138.5,67.5C 138.833,68.1667 139.167,68.8333 139.5,69.5C 135.987,69.3075 132.654,69.9741 129.5,71.5C 139.066,77.7298 147.733,85.0631 155.5,93.5C 155.5,93.8333 155.5,94.1667 155.5,94.5C 155.5,95.1667 155.5,95.8333 155.5,96.5C 149.004,90.1713 142.337,84.0047 135.5,78C 132.148,75.4675 128.481,73.6341 124.5,72.5C 110.568,76.6346 97.5685,82.6346 85.5,90.5C 85.9321,89.2905 86.5987,88.2905 87.5,87.5C 98.3346,80.0827 110.001,74.2494 122.5,70C 117.958,67.5622 113.291,65.3956 108.5,63.5 Z"/></g>
<g><path style="opacity:1" fill="#73719e" d="M 107.5,63.5 C 107.833,63.5 108.167,63.5 108.5,63.5C 113.291,65.3956 117.958,67.5622 122.5,70C 110.001,74.2494 98.3346,80.0827 87.5,87.5C 91.2452,79.0081 96.2452,71.3415 102.5,64.5C 104.216,64.3713 105.883,64.038 107.5,63.5 Z"/></g>
<g><path style="opacity:1" fill="#ad743d" d="M 107.5,63.5 C 105.883,64.038 104.216,64.3713 102.5,64.5C 103.879,62.4031 105.545,62.0698 107.5,63.5 Z"/></g>
<g><path style="opacity:1" fill="#75729d" d="M 112.5,62.5 C 121.23,61.344 129.23,63.0107 136.5,67.5C 133.185,68.1642 129.852,68.8308 126.5,69.5C 121.778,67.1389 117.111,64.8055 112.5,62.5 Z"/></g>
<g><path style="opacity:1" fill="#e79641" d="M 95.5,69.5 C 86.7059,75.0601 81.3725,83.0601 79.5,93.5C 73.5315,97.8012 68.1981,102.801 63.5,108.5C 58.4995,96.5238 58.3329,84.5238 63,72.5C 70.5549,62.144 80.7216,57.9774 93.5,60C 96.5285,60.539 99.5285,61.2057 102.5,62C 99.9614,64.3697 97.6281,66.8697 95.5,69.5 Z"/></g>
<g><path style="opacity:1" fill="#e69541" d="M 138.5,67.5 C 137.833,67.5 137.167,67.5 136.5,67.5C 129.23,63.0107 121.23,61.344 112.5,62.5C 111.5,62.5 110.5,62.5 109.5,62.5C 108.261,61.788 107.761,60.788 108,59.5C 120.035,47.0764 133.535,44.9097 148.5,53C 152.931,56.6983 156.264,61.1983 158.5,66.5C 151.848,66.3058 145.181,66.6391 138.5,67.5 Z"/></g>
<g><path style="opacity:1" fill="#150d05" d="M 210.5,128.5 C 215.715,127.702 220.215,129.036 224,132.5C 225.879,135.8 225.879,139.134 224,142.5C 222.951,144.107 221.451,144.773 219.5,144.5C 219.5,143.5 219.5,142.5 219.5,141.5C 224.482,140.022 224.815,137.522 220.5,134C 216.125,131.915 211.958,132.082 208,134.5C 207.231,137.099 207.398,139.599 208.5,142C 207.551,142.617 206.718,142.451 206,141.5C 204.379,135.923 205.879,131.589 210.5,128.5 Z"/></g>
<g><path style="opacity:1" fill="#76ca33" d="M 176.5,131.5 C 176.5,132.5 176.5,133.5 176.5,134.5C 177.321,155.699 167.654,169.532 147.5,176C 144.183,176.498 140.85,176.665 137.5,176.5C 144.817,168.551 150.65,159.551 155,149.5C 162.325,143.842 168.991,137.508 175,130.5C 175.383,131.056 175.883,131.389 176.5,131.5 Z"/></g>
<g><path style="opacity:1" fill="#7ba523" d="M 137.5,132.5 C 137.833,132.5 138.167,132.5 138.5,132.5C 139.173,142.138 137.173,151.138 132.5,159.5C 125.831,162.385 119.164,165.051 112.5,167.5C 111.5,167.167 110.833,166.5 110.5,165.5C 103.168,156.504 99.8351,146.171 100.5,134.5C 113.238,140.295 125.572,139.628 137.5,132.5 Z"/></g>
<g><path style="opacity:1" fill="#f14a20" d="M 75.5,135.5 C 84.5215,148.188 95.5215,158.855 108.5,167.5C 98.5755,169.627 88.5755,169.96 78.5,168.5C 75.877,162.096 74.5437,155.43 74.5,148.5C 74.1818,143.968 74.5151,139.634 75.5,135.5 Z"/></g>
<g><path style="opacity:1" fill="#72230f" d="M 75.5,135.5 C 74.5151,139.634 74.1818,143.968 74.5,148.5C 73.1876,143.985 73.1876,139.318 74.5,134.5C 75.1067,134.624 75.44,134.957 75.5,135.5 Z"/></g>
<g><path style="opacity:1" fill="#e1953f" d="M 176.5,134.5 C 181.074,146.463 180.241,158.13 174,169.5C 165.05,178.702 154.216,181.869 141.5,179C 139.256,178.95 137.589,178.117 136.5,176.5C 136.833,176.5 137.167,176.5 137.5,176.5C 140.85,176.665 144.183,176.498 147.5,176C 167.654,169.532 177.321,155.699 176.5,134.5 Z"/></g>
<g><path style="opacity:1" fill="#148816" d="M 163.5,109.5 C 163.833,109.5 164.167,109.5 164.5,109.5C 164.833,110.167 165.167,110.833 165.5,111.5C 163.767,122.758 161.267,133.758 158,144.5C 164.778,139.561 170.278,133.561 174.5,126.5C 175.537,127.93 176.204,129.597 176.5,131.5C 175.883,131.389 175.383,131.056 175,130.5C 168.991,137.508 162.325,143.842 155,149.5C 150.65,159.551 144.817,168.551 137.5,176.5C 137.167,176.5 136.833,176.5 136.5,176.5C 136.167,176.5 135.833,176.5 135.5,176.5C 141.309,168.901 146.642,160.901 151.5,152.5C 144.462,156.019 137.129,159.686 129.5,163.5C 124.748,165.193 120.081,166.86 115.5,168.5C 114.391,168.443 113.391,168.11 112.5,167.5C 119.164,165.051 125.831,162.385 132.5,159.5C 140.359,156.32 147.526,151.987 154,146.5C 159.207,134.673 162.373,122.34 163.5,109.5 Z"/></g>
<g><path style="opacity:1" fill="#150d05" d="M 31.5,136.5 C 33.4411,138.011 33.9411,140.011 33,142.5C 30.9824,144.35 29.1491,146.35 27.5,148.5C 29.7713,149.363 32.1046,149.363 34.5,148.5C 34.4125,145.402 34.9125,145.068 36,147.5C 37.1505,149.754 37.4838,152.087 37,154.5C 35.9335,152.717 34.4335,152.217 32.5,153C 29.2265,154.202 25.8931,155.202 22.5,156C 21.2298,156.9 20.2298,158.066 19.5,159.5C 17.2854,154.703 16.4521,149.703 17,144.5C 17.804,143.196 18.9707,142.529 20.5,142.5C 26.3059,145.106 29.9726,143.106 31.5,136.5 Z"/></g>
<g><path style="opacity:1" fill="#d88c3c" d="M 20.5,146.5 C 23.5497,145.923 25.5497,147.09 26.5,150C 23.978,151.341 21.3113,152.174 18.5,152.5C 18.2525,150.142 18.9192,148.142 20.5,146.5 Z"/></g>
<g><path style="opacity:1" fill="#71c832" d="M 135.5,176.5 C 130.158,176.385 125.158,175.052 120.5,172.5C 123.23,169.287 126.23,166.287 129.5,163.5C 137.129,159.686 144.462,156.019 151.5,152.5C 146.642,160.901 141.309,168.901 135.5,176.5 Z"/></g>
<g><path style="opacity:1" fill="#170f06" d="M 201.5,151.5 C 205,155.273 209.333,158.107 214.5,160C 215.784,160.684 216.951,160.517 218,159.5C 217.526,163.892 215.693,167.725 212.5,171C 208.79,172.224 206.123,171.058 204.5,167.5C 198.695,168.865 196.195,166.532 197,160.5C 198.513,157.473 200.013,154.473 201.5,151.5 Z"/></g>
<g><path style="opacity:1" fill="#dd8f3e" d="M 200.5,157.5 C 202.386,158.361 204.22,159.361 206,160.5C 206.611,164.088 205.111,165.254 201.5,164C 199.316,162.102 198.983,159.936 200.5,157.5 Z"/></g>
<g><path style="opacity:1" fill="#d4893b" d="M 208.5,161.5 C 210.14,162.32 211.807,163.153 213.5,164C 214.451,164.718 214.617,165.551 214,166.5C 209.079,168.077 207.246,166.41 208.5,161.5 Z"/></g>
<g><path style="opacity:1" fill="#1a1108" d="M 36.5,156.5 C 37.8221,156.33 38.9887,156.663 40,157.5C 41.8333,161.167 43.6667,164.833 45.5,168.5C 40.7653,169.688 36.0986,171.855 31.5,175C 30.7734,176.399 30.2734,177.899 30,179.5C 27.5,175.167 25,170.833 22.5,166.5C 23.9135,164.084 25.5801,163.584 27.5,165C 24.9937,167.549 25.1604,170.049 28,172.5C 30.1373,171.521 31.9706,170.188 33.5,168.5C 31.5586,166.684 30.8919,164.684 31.5,162.5C 33.7425,168.356 37.0758,169.022 41.5,164.5C 40.5762,160.919 38.2429,158.919 34.5,158.5C 35.2427,157.818 35.9094,157.151 36.5,156.5 Z"/></g>
<g><path style="opacity:1" fill="#72a322" d="M 129.5,163.5 C 126.23,166.287 123.23,169.287 120.5,172.5C 118.611,171.396 116.945,170.063 115.5,168.5C 120.081,166.86 124.748,165.193 129.5,163.5 Z"/></g>
<g><path style="opacity:1" fill="#e5491f" d="M 117.5,172.5 C 112.256,175.874 106.422,177.208 100,176.5C 93.0488,177.344 86.8821,175.677 81.5,171.5C 90.9111,171.847 100.244,171.18 109.5,169.5C 112.391,169.948 115.058,170.948 117.5,172.5 Z"/></g>
<g><path style="opacity:1" fill="#e89540" d="M 81.5,171.5 C 86.8821,175.677 93.0488,177.344 100,176.5C 106.422,177.208 112.256,175.874 117.5,172.5C 122.02,174.926 126.687,177.093 131.5,179C 119.671,191.712 106.005,194.379 90.5,187C 85.8561,182.71 82.1895,177.71 79.5,172C 80.0944,171.536 80.7611,171.369 81.5,171.5 Z"/></g>
<g><path style="opacity:1" fill="#170f06" d="M 47.5,172.5 C 49.7639,174.097 51.7639,176.097 53.5,178.5C 48.4344,181.39 43.7677,184.89 39.5,189C 39.9981,190.158 40.8315,190.991 42,191.5C 46.4509,190.732 46.6176,191.732 42.5,194.5C 38.6762,190.507 35.0095,186.34 31.5,182C 32.6667,180.833 33.8333,179.667 35,178.5C 36.6279,179.819 36.4613,181.152 34.5,182.5C 34.8688,184.39 35.8688,185.224 37.5,185C 41.4658,182.036 45.1325,178.703 48.5,175C 47.7476,174.329 47.4142,173.496 47.5,172.5 Z"/></g>
<g><path style="opacity:1" fill="#120b04" d="M 190.5,171.5 C 198.124,170.64 203.124,173.806 205.5,181C 204.41,188.71 200.076,191.71 192.5,190C 184.08,184.575 183.413,178.408 190.5,171.5 Z"/></g>
<g><path style="opacity:1" fill="#e0913e" d="M 189.5,174.5 C 194.994,174.5 199.16,176.833 202,181.5C 203.073,185.095 201.739,187.095 198,187.5C 192.937,186.105 189.437,182.939 187.5,178C 187.978,176.697 188.645,175.531 189.5,174.5 Z"/></g>
<g><path style="opacity:1" fill="#181006" d="M 55.5,182.5 C 58.0987,183.761 60.432,185.427 62.5,187.5C 61.4699,187.554 60.3033,187.888 59,188.5C 58.497,193.499 60.6637,195.499 65.5,194.5C 66.1131,193.02 66.4464,191.687 66.5,190.5C 68.1667,191.833 69.8333,193.167 71.5,194.5C 64.8491,196.909 58.6825,200.243 53,204.5C 51.7638,203.601 50.9304,202.434 50.5,201C 52.8906,195 54.5573,188.833 55.5,182.5 Z"/></g>
<g><path style="opacity:1" fill="#160e05" d="M 179.5,183.5 C 180.164,184.648 180.331,185.981 180,187.5C 183.1,191.356 186.433,195.023 190,198.5C 190.718,197.549 191.551,197.383 192.5,198C 190.65,200.018 188.65,201.851 186.5,203.5C 183.789,198.595 180.456,194.095 176.5,190C 175.262,190.077 174.262,189.911 173.5,189.5C 175.533,187.493 177.533,185.493 179.5,183.5 Z"/></g>
<g><path style="opacity:1" fill="#170f06" d="M 170.5,190.5 C 172.772,190.911 173.105,192.078 171.5,194C 173.574,198.148 175.907,202.148 178.5,206C 179.5,206.333 180.5,206.667 181.5,207C 179.507,208.999 177.173,210.499 174.5,211.5C 173.561,205.729 170.894,200.395 166.5,195.5C 165.086,196.624 163.586,197.624 162,198.5C 162.776,204.543 161.609,204.876 158.5,199.5C 162.53,196.491 166.53,193.491 170.5,190.5 Z"/></g>
<g><path style="opacity:1" fill="#cb8439" d="M 57.5,193.5 C 58.8149,194.476 60.1482,195.476 61.5,196.5C 54.0034,203.844 52.6701,202.844 57.5,193.5 Z"/></g>
<g><path style="opacity:1" fill="#130c04" d="M 155.5,199.5 C 155.856,204.923 157.523,210.256 160.5,215.5C 161.376,216.251 162.376,216.751 163.5,217C 160.733,218.893 157.733,219.893 154.5,220C 155.516,219.481 156.182,218.647 156.5,217.5C 154.816,212.807 153.149,208.14 151.5,203.5C 150.448,203.649 149.448,203.483 148.5,203C 150.925,201.787 153.259,200.621 155.5,199.5 Z"/></g>
<g><path style="opacity:1" fill="#1a1108" d="M 76.5,198.5 C 77.8333,198.5 79.1667,198.5 80.5,198.5C 80.1758,202.555 80.5091,206.555 81.5,210.5C 83.8393,207.661 86.3393,204.995 89,202.5C 90.5,202.667 91.3333,203.5 91.5,205C 90.0483,211.023 89.715,217.023 90.5,223C 87.6303,223.079 84.9637,222.245 82.5,220.5C 83.325,219.614 84.325,219.281 85.5,219.5C 86.1125,215.837 86.2792,212.17 86,208.5C 83.3702,212.132 80.3702,215.465 77,218.5C 76.6667,218.167 76.3333,217.833 76,217.5C 75.5242,212.783 75.5242,208.117 76,203.5C 74,206.167 72,208.833 70,211.5C 69.3162,212.784 69.4829,213.951 70.5,215C 68.4021,214.968 66.4021,214.301 64.5,213C 69.4299,208.906 73.4299,204.073 76.5,198.5 Z"/></g>
<g><path style="opacity:1" fill="#170f06" d="M 140.5,204.5 C 142.527,204.338 144.527,204.505 146.5,205C 145.572,205.388 144.905,206.055 144.5,207C 145.95,211.75 146.95,216.583 147.5,221.5C 148.675,221.281 149.675,221.614 150.5,222.5C 148.235,223.647 145.902,223.814 143.5,223C 140.292,219.623 136.958,216.456 133.5,213.5C 133.167,214 132.833,214.5 132.5,215C 133.566,218.094 134.232,221.26 134.5,224.5C 135.552,224.351 136.552,224.517 137.5,225C 135.246,226.15 132.913,226.484 130.5,226C 131.624,225.161 132.291,223.994 132.5,222.5C 131.754,217.768 130.754,213.101 129.5,208.5C 130.365,207.417 131.365,207.251 132.5,208C 136.633,211.131 140.466,214.631 144,218.5C 144.439,214.789 144.106,211.122 143,207.5C 141.933,206.809 140.766,206.309 139.5,206C 140.056,205.617 140.389,205.117 140.5,204.5 Z"/></g>
<g><path style="opacity:1" fill="#1b1208" d="M 109.5,207.5 C 120.542,206.044 125.376,210.711 124,221.5C 120.153,227.388 114.987,228.888 108.5,226C 107.663,224.989 107.33,223.822 107.5,222.5C 110.09,223.252 112.59,224.252 115,225.5C 117.188,225.646 118.521,224.646 119,222.5C 119.667,218.833 119.667,215.167 119,211.5C 117.211,209.771 115.044,209.104 112.5,209.5C 112.083,212.079 112.75,214.246 114.5,216C 111.446,216.821 108.446,216.655 105.5,215.5C 106.846,212.765 108.18,210.098 109.5,207.5 Z"/></g>
</svg>
